<?xml version="1.0" encoding="utf-8"?>
<!-- Generated by IcoMoon.io -->
<!DOCTYPE svg PUBLIC "-//W3C//DTD SVG 1.1//EN" "http://www.w3.org/Graphics/SVG/1.1/DTD/svg11.dtd">
<svg version="1.1" xmlns="http://www.w3.org/2000/svg" xmlns:xlink="http://www.w3.org/1999/xlink" width="512" height="512" viewBox="0 0 512 512">
<g>
</g>
	<path d="M13189.171 72886.057h7.895l0.768 39.885-24.75 0.277v342.139h242.576v-342.139l-25.436 0.481v-40.643h9.902c25.17 0 46.039 20.859 46.039 46.039v329.841c0 25.743-20.869 46.080-46.039 46.080h-210.965c-25.702 0-46.070-20.337-46.070-46.080v-329.841c0.010-25.18 20.378-46.039 46.080-46.039v0zM13294.633 72833.557c-26.215 0-47.094 16.057-47.094 35.902 0 4.28 1.065 8.54 2.642 12.298h-41.195v40.704c0 10.721 9.083 19.804 19.835 19.804h131.676c10.721 0 19.835-9.083 19.835-19.804v-40.704h-41.769c2.14-3.758 3.216-8.018 3.216-12.298-0.010-19.835-21.453-35.902-47.145-35.902v0zM13294.633 72846.439c6.431 0 11.264 5.356 11.264 11.243 0 6.42-4.834 11.776-11.264 11.776-6.421 0-11.234-5.356-11.234-11.776 0-5.878 4.813-11.243 11.234-11.243v0zM13189.171 72962.621v90.501h67.994v-90.501h-67.994zM13274.808 72982.416v14.439h123.699v-14.439h-123.699zM13274.808 73047.245v14.418h123.699v-14.418h-123.699zM13190.216 73092.219v14.961h209.367v-14.961h-209.367zM13190.216 73146.276v15.001h209.367v-15.001h-209.367zM13190.216 73200.896v14.981h209.367v-14.981h-209.367z" fill="#fff" />
	<path d="M116.214 31.355c-19.65 0-35.737 16.077-35.737 35.717 0 20.101 16.087 35.277 35.737 35.277 20.112 0 36.157-15.175 36.157-35.277 0-19.641-16.046-35.717-36.157-35.717z" fill="#fff" />
	<path d="M216.258 83.569c-5.796-11.12-37.97 5.837-33.495 15.636l46.018 92.897c3.574 6.256 35.257-7.096 31.714-14.725l-44.237-93.808z" fill="#fff" />
	<path d="M342.221 74.67c-17.899 0-32.164 14.295-32.164 32.164s14.264 32.144 32.164 32.144c17.838 0 32.144-14.285 32.144-32.144s-14.305-32.164-32.144-32.164z" fill="#fff" />
	<path d="M432.425 122.030c-4.905-10.281-33.935 5.325-29.901 14.264l41.564 84.418c2.181 4.915 31.242-7.577 28.119-13.845l-39.783-84.838z" fill="#fff" />
	<path d="M232.345 244.368c0-26.737-33.925-143.339-85.299-143.339-13.415 0-29.952 12.923-32.614 24.535l-19.661 67.901-77.742 54.978 13.445 20.92 8.458-4.444 66.54 108.083-17.869 97.382 42.895 10.26 9.359-51.344c0-0.461 28.139 45.558 28.139 45.558l19.19-4.485c0 0-41.953-69.663-41.953-69.182l7.117-38.462 29.922-36.618 76.83 154.522 27.259-24.976-62.515-186.286c0 0 8.499-8.448 8.499-25.006zM111.749 345.334l-54.467-89.324 62.956-31.283 10.281-17.858 22.344 40.202-41.114 98.263z" fill="#fff" />
	<path d="M401.623 340.388l69.223 138.936 24.115-22.323-56.279-167.966c0 0 7.577-7.117 7.577-22.344 0-24.064-30.341-128.583-76.339-128.583-12.964 0-26.819 12.944-29.942 25.416l-15.657 55.839-70.983 51.364 11.602 18.299 7.608-3.543 59.822 96.921-15.575 87.982 38.38 8.94 8.038-46.019 25.897 40.642 16.998-3.563-38.421-62.996 6.676-33.925 27.259-33.075zM337.756 358.267l-49.121-81.264 56.699-28.201 9.82-16.016 19.682 36.577-37.079 88.904z" fill="#fff" />
</svg>
